<svg xmlns="http://www.w3.org/2000/svg" width="375" viewBox="0 0 375 375" height="375" version="1.0"><defs><clipPath id="a"><path d="M 42.6875 26.597656 L 332.1875 26.597656 L 332.1875 348.347656 L 42.6875 348.347656 Z M 42.6875 26.597656"/></clipPath></defs><path fill="#FFF" d="M-37.5 -37.5H412.5V412.5H-37.5z"/><path fill="#FFF" d="M-37.5 -37.5H412.5V412.5H-37.5z"/><g clip-path="url(#a)"><path fill="#55B5EC" d="M 267.855469 203.558594 L 187.4375 203.558594 L 187.4375 283.996094 L 267.855469 283.996094 Z M 251.769531 26.597656 L 251.769531 58.773438 L 123.105469 58.773438 L 123.105469 26.597656 L 90.9375 26.597656 L 90.9375 58.773438 L 74.855469 58.773438 C 57.082031 58.773438 42.847656 73.171875 42.847656 90.945312 L 42.6875 316.171875 C 42.6875 333.949219 57.082031 348.347656 74.855469 348.347656 L 300.019531 348.347656 C 317.792969 348.347656 332.1875 333.949219 332.1875 316.171875 L 332.1875 90.945312 C 332.1875 73.171875 317.792969 58.773438 300.019531 58.773438 L 283.9375 58.773438 L 283.9375 26.597656 Z M 300.019531 316.171875 L 74.855469 316.171875 L 74.855469 139.210938 L 300.019531 139.210938 Z M 300.019531 316.171875"/></g></svg>