<svg xmlns="http://www.w3.org/2000/svg" width="375" viewBox="0 0 375 375" height="375" version="1.0"><defs><clipPath id="a"><path d="M 16.90625 64.945312 L 358.136719 64.945312 L 358.136719 310.195312 L 16.90625 310.195312 Z M 16.90625 64.945312"/></clipPath></defs><path fill="#F8B30D" d="M 172.894531 89.710938 L 336.800781 89.710938 C 337.488281 157.550781 338.125 225.386719 338.8125 293.222656 C 238.25 291.554688 137.691406 289.886719 37.132812 288.21875 L 37.132812 89.710938 L 149.851562 89.710938"/><g clip-path="url(#a)"><path fill="#294595" d="M 155.292969 250.644531 C 146.371094 250.007812 137.445312 249.617188 128.472656 249.421875 C 124.304688 249.324219 120.140625 249.273438 115.972656 249.273438 C 112.148438 249.226562 107.636719 249.859375 103.863281 249.273438 C 103.273438 248.980469 102.636719 248.878906 102.046875 249.078125 C 101.949219 249.125 101.851562 249.125 101.753906 249.175781 C 100.378906 249.617188 99.054688 251.285156 99.695312 252.804688 C 101.066406 256.140625 103.8125 255.601562 107.046875 255.550781 C 112.390625 255.5 117.785156 255.5 123.128906 255.453125 C 133.867188 255.304688 144.605469 254.867188 155.34375 254.078125 C 157.5 253.882812 157.5 250.792969 155.292969 250.644531 Z M 150.976562 264.722656 C 133.671875 263.890625 116.460938 264.183594 99.105469 264.476562 C 95.132812 264.527344 95.085938 270.757812 99.105469 270.660156 C 116.460938 270.265625 133.671875 269.824219 150.976562 268.355469 C 153.28125 268.15625 153.332031 264.820312 150.976562 264.722656 Z M 280.269531 267.226562 C 272.667969 265.117188 264.53125 264.722656 256.6875 264.039062 C 248.351562 263.300781 240.015625 262.664062 231.679688 262.125 C 227.660156 261.832031 227.710938 268.109375 231.679688 268.355469 C 240.015625 268.890625 248.351562 269.382812 256.6875 269.726562 C 264.480469 270.070312 272.472656 270.707031 280.269531 269.582031 C 281.542969 269.382812 281.347656 267.519531 280.269531 267.226562 Z M 350.1875 186.339844 C 349.695312 168.539062 348.765625 150.78125 347.636719 133.023438 C 339.300781 131.601562 331.210938 127.480469 324.148438 122.183594 C 323.515625 123.066406 322.925781 123.902344 322.535156 124.832031 C 321.109375 128.414062 322.238281 133.5625 319.835938 136.457031 C 317.730469 139.007812 313.464844 139.15625 310.277344 140.527344 L 333.566406 195.613281 L 316.941406 184.378906 L 307.871094 210.03125 L 303.558594 198.75 C 295.664062 199.144531 287.820312 200.175781 279.925781 200.519531 C 277.917969 200.617188 275.957031 200.714844 273.945312 200.761719 L 272.667969 204.148438 L 271.984375 200.859375 C 266.101562 201.054688 260.214844 201.253906 254.332031 201.402344 C 223.148438 202.136719 191.96875 202.480469 160.785156 202.824219 C 145.191406 203.019531 129.550781 203.164062 113.960938 203.363281 C 106.3125 203.460938 98.664062 203.507812 91.015625 203.609375 C 83.5625 203.707031 75.472656 204.6875 68.117188 203.261719 C 65.027344 202.675781 65.125 197.722656 68.117188 197.085938 C 76.550781 195.269531 86.113281 196.296875 94.691406 196.199219 C 103.273438 196.101562 111.851562 196.003906 120.433594 195.957031 C 151.664062 195.613281 182.898438 195.21875 214.128906 194.972656 C 224.425781 194.925781 234.722656 194.875 245.066406 194.925781 L 253.15625 175.894531 C 231.289062 178.59375 209.03125 179.230469 187.066406 180.015625 C 173.628906 180.503906 160.195312 180.898438 146.808594 181.191406 C 140.09375 181.339844 133.378906 181.484375 126.660156 181.582031 C 120.089844 181.679688 113.078125 182.46875 106.507812 181.582031 C 103.078125 181.144531 101.410156 175.503906 105.574219 174.863281 C 112.148438 173.832031 119.058594 174.324219 125.726562 174.226562 C 132.152344 174.128906 138.523438 173.980469 144.945312 173.832031 C 158.382812 173.539062 171.816406 173.148438 185.199219 172.753906 C 208.441406 172.019531 231.875 170.5 255.214844 170.941406 L 268.894531 138.714844 C 268.847656 138.664062 268.746094 138.566406 268.699219 138.515625 C 265.757812 136.066406 260.511719 135.574219 258.5 132.339844 C 256.488281 129.148438 258.304688 124.195312 257.371094 120.46875 C 256.441406 116.886719 252.46875 113.402344 252.765625 109.480469 C 253.058594 105.554688 257.421875 102.664062 258.84375 99.230469 C 260.265625 95.648438 259.136719 90.5 261.539062 87.605469 C 263.992188 84.660156 269.238281 84.90625 272.472656 82.84375 C 275.660156 80.835938 277.769531 75.976562 281.496094 75.046875 C 285.074219 74.117188 289.242188 77.402344 293.117188 77.648438 C 293.652344 77.695312 294.195312 77.648438 294.734375 77.597656 C 294.339844 75.683594 294.046875 73.722656 294.046875 71.859375 C 286.203125 71.859375 278.308594 71.808594 270.460938 71.761719 C 229.523438 71.613281 188.582031 71.417969 147.597656 70.976562 C 124.648438 70.730469 101.652344 70.78125 78.757812 72.347656 C 78.414062 85.003906 71.058594 98.050781 63.265625 107.273438 C 53.847656 118.40625 41.25 126.941406 27.765625 132.289062 C 27.617188 132.339844 27.472656 132.386719 27.375 132.386719 C 26.738281 151.46875 25.953125 170.546875 25.558594 189.578125 C 25.167969 208.316406 24.921875 227.101562 24.777344 245.839844 C 36.003906 248.632812 46.542969 256.679688 54.144531 264.722656 C 62.773438 273.847656 71.253906 286.941406 72.726562 299.792969 C 80.375 299.449219 87.976562 299.15625 95.625 298.910156 C 139.210938 297.539062 182.800781 297.882812 226.335938 299.792969 C 247.664062 300.726562 268.945312 302.589844 290.320312 303.179688 C 291.988281 303.226562 293.652344 303.226562 295.324219 303.277344 C 296.839844 287.925781 304.148438 273.0625 313.902344 261.386719 C 322.828125 250.695312 336.554688 239.609375 350.921875 237.109375 C 350.726562 220.183594 350.675781 203.261719 350.1875 186.339844 Z M 350.527344 242.113281 C 345.28125 244.808594 339.988281 247.261719 335.085938 250.742188 C 329.054688 255.011719 323.613281 260.160156 318.90625 265.851562 C 309.835938 276.886719 304.882812 289.542969 302.433594 303.324219 C 317.972656 303.226562 333.320312 302.148438 348.863281 300.433594 C 349.644531 281.007812 350.234375 261.585938 350.527344 242.113281 Z M 65.125 300.1875 C 63.214844 294.742188 61.792969 289.347656 59.046875 284.195312 C 56.15625 278.753906 52.671875 273.699219 48.605469 269.089844 C 44.484375 264.476562 39.828125 260.40625 34.726562 256.925781 C 31.445312 254.667969 27.964844 252.855469 24.433594 251.039062 C 24.382812 259.082031 24.335938 267.128906 24.335938 275.222656 C 24.335938 280.125 24.335938 285.03125 24.335938 289.9375 C 24.335938 294.152344 24.675781 298.46875 23.941406 302.6875 C 37.667969 301.660156 51.398438 300.871094 65.125 300.1875 Z M 27.324219 124.785156 C 38.40625 119.339844 48.703125 112.765625 57.035156 103.445312 C 61.449219 98.542969 65.125 93 68.019531 87.066406 C 70.324219 82.40625 71.648438 77.597656 73.019531 72.691406 C 57.820312 73.917969 42.71875 75.832031 27.71875 78.824219 C 28.011719 94.175781 27.765625 109.480469 27.324219 124.785156 Z M 276.101562 195.121094 C 278.601562 195.171875 281.054688 195.21875 283.554688 195.269531 C 289.929688 195.464844 296.253906 196.101562 302.628906 196.394531 L 289.144531 161.03125 Z M 268.402344 184.480469 L 247.761719 194.828125 C 252.078125 194.828125 256.34375 194.828125 260.65625 194.875 C 263.992188 194.875 267.324219 194.925781 270.660156 194.972656 Z M 356.117188 300.628906 C 355.875 304.207031 351.558594 305.042969 349.695312 303.03125 C 328.515625 309.945312 304.929688 310.046875 282.964844 309.410156 C 239.574219 308.183594 196.332031 305.386719 152.890625 305.433594 C 109.011719 305.484375 65.125 307.003906 21.34375 310.191406 C 18.15625 310.4375 17.128906 307.105469 18.253906 304.847656 C 17.960938 304.503906 17.765625 304.109375 17.617188 303.671875 C 16.585938 299.207031 16.980469 294.496094 16.980469 289.9375 C 16.980469 285.03125 16.980469 280.125 17.03125 275.222656 C 17.078125 265.703125 17.128906 256.1875 17.226562 246.722656 C 17.421875 227.691406 17.714844 208.707031 18.15625 189.675781 C 19.039062 151.46875 19.136719 112.71875 23.550781 74.753906 C 23.746094 72.988281 25.65625 72.398438 26.785156 73.085938 C 42.769531 69.898438 58.949219 67.886719 75.179688 66.707031 C 75.765625 66.269531 76.503906 66.269531 77.140625 66.5625 C 82.335938 66.21875 87.582031 65.921875 92.828125 65.726562 C 133.476562 64.0625 174.363281 65.433594 215.011719 66.414062 C 256.6875 67.445312 298.410156 67.789062 340.085938 69.703125 C 341.261719 69.75 341.261719 71.515625 340.085938 71.515625 C 325.917969 71.808594 311.746094 71.859375 297.578125 71.808594 C 298.460938 73.332031 299.246094 74.851562 299.980469 76.46875 C 301.695312 76.125 303.363281 75.976562 304.832031 76.570312 C 308.414062 77.992188 309.835938 83.089844 312.726562 85.496094 C 315.667969 87.949219 320.914062 88.4375 322.925781 91.675781 C 324.933594 94.863281 323.121094 99.816406 324.050781 103.546875 C 324.984375 107.125 328.957031 110.609375 328.664062 114.53125 C 328.613281 115.074219 328.515625 115.5625 328.316406 116.054688 C 329.839844 117.132812 331.359375 118.160156 332.976562 119.140625 C 337.535156 121.890625 342.242188 123.558594 347.144531 125.175781 C 345.824219 107.617188 343.515625 89.910156 343.515625 72.300781 C 343.515625 70.09375 346.902344 69.601562 347.390625 71.761719 C 351.65625 90.253906 352.6875 109.871094 354.15625 128.707031 C 355.675781 147.542969 356.65625 166.429688 357.296875 185.3125 C 358.570312 223.71875 358.570312 262.320312 356.117188 300.628906 Z M 145.925781 156.128906 C 174.855469 155.832031 204.421875 156.519531 233.101562 152.890625 C 234.722656 152.695312 234.769531 150.535156 233.101562 150.339844 C 204.324219 147.296875 174.808594 148.621094 145.925781 148.917969 C 141.320312 148.964844 141.320312 156.175781 145.925781 156.128906 Z M 308.070312 218.175781 C 292.574219 216.164062 276.789062 216.261719 261.148438 216.117188 C 245.210938 215.917969 229.277344 215.917969 213.296875 215.917969 C 182.015625 215.917969 150.734375 216.066406 119.5 216.261719 C 101.410156 216.410156 83.316406 216.554688 65.226562 216.753906 C 60.519531 216.800781 60.46875 224.160156 65.226562 224.109375 C 128.082031 223.421875 190.9375 223.519531 253.792969 223.179688 C 271.835938 223.082031 290.125 223.570312 308.070312 221.410156 C 310.128906 221.117188 310.128906 218.421875 308.070312 218.175781 Z M 285.027344 251.871094 C 266.589844 250.351562 248.058594 250.207031 229.523438 249.46875 C 225.257812 249.324219 225.257812 255.945312 229.523438 256.089844 C 248.007812 256.726562 266.589844 257.121094 285.027344 255.207031 C 287.132812 255.011719 287.183594 252.066406 285.027344 251.871094 Z M 181.082031 121.054688 C 181.082031 113.257812 187.40625 106.980469 195.15625 106.980469 C 202.949219 106.980469 209.226562 113.304688 209.226562 121.054688 C 209.226562 128.808594 202.902344 135.132812 195.15625 135.132812 C 187.40625 135.132812 181.082031 128.808594 181.082031 121.054688"/></g><path fill="#F8B30D" d="M 280.171875 112.472656 C 279.386719 114.289062 278.75 116.101562 278.550781 118.0625 C 278.40625 119.585938 279.976562 120.910156 281.398438 120.910156 C 282.820312 120.910156 284.386719 119.585938 284.242188 118.0625 C 284.09375 116.054688 283.457031 114.289062 282.621094 112.472656 C 282.230469 111.539062 280.5625 111.539062 280.171875 112.472656 Z M 298.019531 93.589844 C 293.261719 92.511719 289.09375 92.460938 285.074219 95.648438 C 282.085938 98.003906 278.113281 103.300781 279.535156 107.273438 C 280.074219 108.746094 281.839844 109.382812 283.066406 108.207031 C 285.269531 106.046875 285.171875 102.464844 287.085938 99.964844 C 289.632812 96.480469 293.75 95.945312 297.773438 95.597656 C 298.800781 95.453125 299.195312 93.832031 298.019531 93.589844 Z M 290.074219 82.84375 C 291.054688 82.648438 291.398438 83.972656 290.46875 84.316406 C 283.996094 86.671875 276.25 89.125 272.082031 95.058594 C 268.355469 100.359375 268.746094 107.617188 269.433594 113.796875 C 270.070312 119.535156 271.789062 125.667969 276.199219 129.640625 C 280.5625 133.515625 286.59375 134.691406 292.28125 134.101562 C 298.214844 133.515625 304.785156 131.0625 308.707031 126.355469 C 312.726562 121.496094 313.855469 113.648438 313.804688 107.566406 C 313.757812 101.238281 311.699219 94.617188 306.695312 90.5 C 301.253906 86.035156 293.851562 86.523438 287.234375 87.113281 C 283.996094 87.40625 283.945312 82.160156 287.234375 82.011719 C 294.539062 81.667969 302.285156 81.472656 308.558594 85.789062 C 313.660156 89.320312 316.941406 95.207031 318.167969 101.238281 C 320.425781 112.570312 317.828125 127.285156 307.824219 134.152344 C 298.605469 140.480469 284.484375 142.097656 274.875 135.625 C 264.972656 128.953125 263.355469 115.855469 264.628906 104.871094 C 266.199219 91.234375 277.621094 85.199219 290.074219 82.84375"/></svg>