<svg xmlns="http://www.w3.org/2000/svg" width="375" viewBox="0 0 375 375" height="375" version="1.0"><defs><clipPath id="a"><path d="M 66.566406 26.257812 L 308.066406 26.257812 L 308.066406 348.757812 L 66.566406 348.757812 Z M 66.566406 26.257812"/></clipPath></defs><path fill="#FFF" d="M-37.5 -37.5H412.5V412.5H-37.5z"/><path fill="#FFF" d="M-37.5 -37.5H412.5V412.5H-37.5z"/><path fill="#55B5EC" d="M 116.882812 247.976562 L 137.007812 247.976562 L 137.007812 227.820312 L 116.882812 227.820312 L 116.882812 247.976562"/><path fill="#55B5EC" d="M 257.753906 29.210938 L 257.753906 76.648438 L 305.117188 76.648438 Z M 257.753906 29.210938"/><path fill="#55B5EC" d="M 116.882812 298.367188 L 137.007812 298.367188 L 137.007812 278.210938 L 116.882812 278.210938 L 116.882812 298.367188"/><path fill="#55B5EC" d="M 116.882812 197.585938 L 137.007812 197.585938 L 137.007812 177.429688 L 116.882812 177.429688 L 116.882812 197.585938"/><g clip-path="url(#a)"><path fill="#55B5EC" d="M 262.785156 147.195312 L 162.160156 147.195312 C 159.382812 147.195312 157.132812 144.941406 157.132812 142.15625 C 157.132812 139.371094 159.382812 137.117188 162.160156 137.117188 L 262.785156 137.117188 C 265.566406 137.117188 267.816406 139.371094 267.816406 142.15625 C 267.816406 144.941406 265.566406 147.195312 262.785156 147.195312 Z M 262.785156 197.585938 L 162.160156 197.585938 C 159.382812 197.585938 157.132812 195.332031 157.132812 192.546875 C 157.132812 189.761719 159.382812 187.507812 162.160156 187.507812 L 262.785156 187.507812 C 265.566406 187.507812 267.816406 189.761719 267.816406 192.546875 C 267.816406 195.332031 265.566406 197.585938 262.785156 197.585938 Z M 262.785156 247.976562 L 162.160156 247.976562 C 159.382812 247.976562 157.132812 245.722656 157.132812 242.9375 C 157.132812 240.152344 159.382812 237.898438 162.160156 237.898438 L 262.785156 237.898438 C 265.566406 237.898438 267.816406 240.152344 267.816406 242.9375 C 267.816406 245.722656 265.566406 247.976562 262.785156 247.976562 Z M 262.785156 298.367188 L 162.160156 298.367188 C 159.382812 298.367188 157.132812 296.113281 157.132812 293.328125 C 157.132812 290.542969 159.382812 288.289062 162.160156 288.289062 L 262.785156 288.289062 C 265.566406 288.289062 267.816406 290.542969 267.816406 293.328125 C 267.816406 296.113281 265.566406 298.367188 262.785156 298.367188 Z M 155.65625 75.171875 L 125.46875 105.40625 C 124.488281 106.390625 123.199219 106.882812 121.914062 106.882812 C 120.625 106.882812 119.339844 106.390625 118.355469 105.40625 L 103.261719 90.289062 C 101.296875 88.320312 101.296875 85.132812 103.261719 83.164062 C 105.226562 81.195312 108.410156 81.195312 110.375 83.164062 L 121.914062 94.71875 L 148.542969 68.046875 C 150.507812 66.078125 153.691406 66.078125 155.65625 68.046875 C 157.621094 70.015625 157.621094 73.203125 155.65625 75.171875 Z M 155.65625 125.5625 L 125.46875 155.796875 C 124.488281 156.78125 123.199219 157.273438 121.914062 157.273438 C 120.625 157.273438 119.339844 156.78125 118.355469 155.796875 L 103.261719 140.679688 C 101.296875 138.710938 101.296875 135.523438 103.261719 133.554688 C 105.226562 131.585938 108.410156 131.585938 110.375 133.554688 L 121.914062 145.109375 L 148.542969 118.4375 C 150.507812 116.46875 153.691406 116.46875 155.65625 118.4375 C 157.621094 120.40625 157.621094 123.59375 155.65625 125.5625 Z M 147.070312 202.625 C 147.070312 205.410156 144.820312 207.664062 142.039062 207.664062 L 111.851562 207.664062 C 109.070312 207.664062 106.820312 205.410156 106.820312 202.625 L 106.820312 172.390625 C 106.820312 169.605469 109.070312 167.351562 111.851562 167.351562 L 142.039062 167.351562 C 144.820312 167.351562 147.070312 169.605469 147.070312 172.390625 Z M 147.070312 253.015625 C 147.070312 255.800781 144.820312 258.054688 142.039062 258.054688 L 111.851562 258.054688 C 109.070312 258.054688 106.820312 255.800781 106.820312 253.015625 L 106.820312 222.78125 C 106.820312 219.996094 109.070312 217.742188 111.851562 217.742188 L 142.039062 217.742188 C 144.820312 217.742188 147.070312 219.996094 147.070312 222.78125 Z M 147.070312 303.40625 C 147.070312 306.191406 144.820312 308.445312 142.039062 308.445312 L 111.851562 308.445312 C 109.070312 308.445312 106.820312 306.191406 106.820312 303.40625 L 106.820312 273.171875 C 106.820312 270.386719 109.070312 268.132812 111.851562 268.132812 L 142.039062 268.132812 C 144.820312 268.132812 147.070312 270.386719 147.070312 273.171875 Z M 162.160156 86.726562 L 222.535156 86.726562 C 225.316406 86.726562 227.566406 88.980469 227.566406 91.765625 C 227.566406 94.550781 225.316406 96.804688 222.535156 96.804688 L 162.160156 96.804688 C 159.382812 96.804688 157.132812 94.550781 157.132812 91.765625 C 157.132812 88.980469 159.382812 86.726562 162.160156 86.726562 Z M 252.722656 86.726562 C 249.941406 86.726562 247.691406 84.472656 247.691406 81.6875 L 247.691406 26.257812 L 81.664062 26.257812 C 73.339844 26.257812 66.570312 33.039062 66.570312 41.375 L 66.570312 333.640625 C 66.570312 341.976562 73.339844 348.757812 81.664062 348.757812 L 292.972656 348.757812 C 301.292969 348.757812 308.066406 341.976562 308.066406 333.640625 L 308.066406 86.726562 L 252.722656 86.726562"/></g></svg>