<svg xmlns="http://www.w3.org/2000/svg" width="375" viewBox="0 0 375 375" height="375" version="1.0"><defs><clipPath id="a"><path d="M 2.8125 39.800781 L 372.558594 39.800781 L 372.558594 337.550781 L 2.8125 337.550781 Z M 2.8125 39.800781"/></clipPath></defs><path fill="#FFF" d="M-37.5 -37.5H412.5V412.5H-37.5z"/><path fill="#FFF" d="M-37.5 -37.5H412.5V412.5H-37.5z"/><path fill="#FFF" d="M-37.5 -37.5H412.5V412.5H-37.5z"/><g clip-path="url(#a)"><path fill="#55B5EC" d="M 182.679688 188.675781 L 134.738281 188.675781 C 119.726562 200.046875 101.082031 206.820312 80.820312 206.820312 C 62.5 206.820312 45.550781 201.257812 31.34375 191.820312 L 31.34375 323.839844 C 31.34375 331.339844 37.476562 337.46875 44.984375 337.46875 L 275.90625 337.46875 C 283.410156 337.46875 289.546875 331.339844 289.546875 323.839844 L 289.546875 189.484375 C 274.695312 200.371094 256.453125 206.902344 236.679688 206.902344 C 216.339844 206.820312 197.613281 200.046875 182.679688 188.675781 Z M 351.9375 186.175781 L 300.84375 215.691406 L 300.84375 297.628906 L 351.9375 327.148438 C 361.058594 332.390625 372.4375 325.855469 372.4375 315.292969 L 372.4375 198.03125 C 372.519531 187.464844 361.058594 180.933594 351.9375 186.175781 Z M 236.597656 39.800781 C 193.578125 39.800781 158.628906 74.640625 158.628906 117.625 C 158.628906 160.609375 193.496094 195.449219 236.515625 195.449219 C 279.539062 195.449219 314.40625 160.609375 314.40625 117.625 C 314.484375 74.640625 279.617188 39.800781 236.597656 39.800781 Z M 236.597656 151.175781 C 218.035156 151.175781 203.019531 136.175781 203.019531 117.625 C 203.019531 99.078125 218.035156 84.078125 236.597656 84.078125 C 255.160156 84.078125 270.175781 99.078125 270.175781 117.625 C 270.09375 136.175781 255.082031 151.175781 236.597656 151.175781 Z M 80.742188 39.800781 C 37.71875 39.800781 2.851562 74.640625 2.851562 117.625 C 2.851562 160.609375 37.71875 195.449219 80.742188 195.449219 C 123.761719 195.449219 158.628906 160.609375 158.628906 117.625 C 158.628906 74.640625 123.761719 39.800781 80.742188 39.800781 Z M 80.742188 151.175781 C 62.175781 151.175781 47.164062 136.175781 47.164062 117.625 C 47.246094 99.15625 62.257812 84.15625 80.742188 84.15625 C 99.222656 84.15625 114.316406 99.15625 114.316406 117.707031 C 114.316406 136.175781 99.304688 151.175781 80.742188 151.175781 Z M 80.742188 151.175781"/></g></svg>